HIERARCHY
ROOT Hips
{
	OFFSET 0.00000 0.00000 0.00000
	CHANNELS 6 Xposition Yposition Zposition Zrotation Yrotation Xrotation 
	JOINT LHipJoint
	{
		OFFSET 0 0 0
		CHANNELS 3 Zrotation Yrotation Xrotation
		JOINT LeftHip
		{
			OFFSET 1.62964 -1.40469 0.78906
			CHANNELS 3 Zrotation Yrotation Xrotation
			JOINT LeftKnee
			{
				OFFSET 2.29640 -6.30932 0.00000
				CHANNELS 3 Zrotation Yrotation Xrotation
				JOINT LeftAnkle
				{
					OFFSET 2.29451 -6.30412 0.00000
					CHANNELS 3 Zrotation Yrotation Xrotation
					JOINT LeftToe
					{
						OFFSET 0.03611 -0.09921 1.56387
						CHANNELS 3 Zrotation Yrotation Xrotation
						End Site
						{
							OFFSET 0.00000 -0.00000 0.80291
						}
					}
				}
			}
		}
	}
	JOINT RHipJoint
	{
		OFFSET 0 0 0
		CHANNELS 3 Zrotation Yrotation Xrotation
		JOINT RightHip
		{
			OFFSET -1.73712 -1.40469 0.78906
			CHANNELS 3 Zrotation Yrotation Xrotation
			JOINT RightKnee
			{
				OFFSET -2.28137 -6.26801 0.00000
				CHANNELS 3 Zrotation Yrotation Xrotation
				JOINT RightAnkle
				{
					OFFSET -2.28681 -6.28298 0.00000
					CHANNELS 3 Zrotation Yrotation Xrotation
					JOINT RightToe
					{
						OFFSET -0.15927 -0.43759 1.61103
						CHANNELS 3 Zrotation Yrotation Xrotation
						End Site
						{
							OFFSET -0.00000 -0.00000 0.84630
						}
					}
				}
			}
		}
	}
	JOINT lowerback
	{
		OFFSET 0 0 0
		CHANNELS 3 Zrotation Yrotation Xrotation
		JOINT Chest
		{
			OFFSET -0.04227 2.04338 -0.00225
			CHANNELS 3 Zrotation Yrotation Xrotation
			JOINT Chest2
			{
				OFFSET -0.02148 2.04482 -0.04273
				CHANNELS 3 Zrotation Yrotation Xrotation
				JOINT lowerneck
				{
					OFFSET 0 0 0
					CHANNELS 3 Zrotation Yrotation Xrotation
					JOINT Neck
					{
						OFFSET 0.09180 1.44629 0.19359
						CHANNELS 3 Zrotation Yrotation Xrotation
						JOINT Head
						{
							OFFSET 0.00887 1.40645 0.14750
							CHANNELS 3 Zrotation Yrotation Xrotation
							End Site
							{
								OFFSET -0.00669 1.50671 0.03707
							}
						}
					}
				}
				JOINT LeftCollar
				{
					OFFSET 0 0 0
					CHANNELS 3 Zrotation Yrotation Xrotation
					JOINT LeftShoulder
					{
						OFFSET 2.17674 1.86763 -0.06520
CHANNELS 3 Zrotation Xrotation Yrotation
						JOINT LeftElbow
						{
OFFSET 0 -4.657760 0.000000
CHANNELS 3 Zrotation Xrotation Yrotation
							JOINT LeftWrist
							{
OFFSET 0 -3.555390 0.000000
CHANNELS 3 Zrotation Xrotation Yrotation
								JOINT lhand
								{
									OFFSET 0 0 0
CHANNELS 3 Zrotation Xrotation Yrotation
									JOINT LFingers
									{
OFFSET 0 -0.707260 0.000000
CHANNELS 3 Zrotation Xrotation Yrotation
										End Site
										{
OFFSET 0 -0.570220 0.000000
										}
									}
								}
								JOINT LThumb
								{
OFFSET 0 0.000000 0.000000
CHANNELS 3 Zrotation Xrotation Yrotation
									End Site
									{
OFFSET 0 -0.578920 0.578920
									}
								}
							}
						}
					}
				}
				JOINT RightCollar
				{
					OFFSET 0 0 0
					CHANNELS 3 Zrotation Yrotation Xrotation
					JOINT RightShoulder
					{
						OFFSET -2.80694 1.55459 -0.32496
CHANNELS 3 Zrotation Xrotation Yrotation
						JOINT RightElbow
						{
OFFSET 0 -4.719250 -0.000000
CHANNELS 3 Zrotation Xrotation Yrotation
							JOINT RightWrist
							{
OFFSET 0 -3.569900 0.000000
CHANNELS 3 Zrotation Xrotation Yrotation
								JOINT rhand
								{
									OFFSET 0 0 0
CHANNELS 3 Zrotation Xrotation Yrotation
									JOINT RFingers
									{
OFFSET 0 -0.507760 0.000000
CHANNELS 3 Zrotation Xrotation Yrotation
										End Site
										{
OFFSET 0 -0.409370 0.000000
										}
									}
								}
								JOINT RThumb
								{
OFFSET 0 0.000000 0.000000
CHANNELS 3 Zrotation Xrotation Yrotation
									End Site
									{
OFFSET 0 -0.415620 0.415620
									}
								}
							}
						}
					}
				}
			}
		}
	}
}
MOTION
Frames: 10
Frame Time: 0.008333333333333333
3.252929 17.398258 17.826736 172.322122 -4.932337 -150.684497 0.000000 0.000000 0.000000 -3.226579 -31.774192 -44.092691 14.687671 19.309436 74.294063 1.564287 -1.517357 -23.219135 4.245521 -12.475495 -37.442574 0.000000 0.000000 0.000000 7.275015 14.306916 -32.574613 -0.654275 -5.172579 14.401633 -0.749732 -4.908646 -18.874131 -1.141440 6.783852 -19.076901 -8.219332 -4.435201 -19.802669 -1.560114 -3.914735 1.771573 1.644441 -2.409423 13.660537 -0.210161 -2.918283 -0.992529 0.298037 -2.299688 21.895289 0.069482 -0.451689 6.832968 0.000000 0.000000 0.000000 9.940588 -2.056812 -20.357371 16.766566 -26.548874 3.982484 21.546613 -4.319803 12.695088 0.000000 0.000000 0.000000 -7.125000 0.000000 0.000000 -3.962362 16.386464 -2.690101 0.000000 0.000000 0.000000 2.708671 11.157153 7.709889 -19.686372 -30.262668 -5.372430 -5.434621 -2.724440 56.490320 0.000000 0.000000 0.000000 7.125000 0.000000 0.000000 81.614920 73.977381 -64.791314
3.251422 17.405581 17.756623 172.618903 -4.191508 -151.655045 0.000000 0.000000 0.000000 -4.325147 -31.081462 -42.589439 14.726328 19.318140 74.409900 1.588345 -1.072565 -23.521829 3.941453 -12.080827 -36.020456 0.000000 0.000000 0.000000 7.960769 14.216426 -31.199401 -0.618421 -5.032733 14.001875 -0.750053 -4.234903 -18.437151 -1.179370 6.892540 -19.397473 -7.788016 -3.996947 -19.801728 -1.679802 -3.378158 2.173875 1.425505 -2.133914 14.036904 -0.150436 -2.874844 -0.705672 0.301814 -2.271577 21.517547 0.064023 -0.444938 6.659673 0.000000 0.000000 0.000000 9.888916 -2.147457 -20.624687 16.897313 -26.722120 4.041099 21.650281 -4.414315 12.671137 0.000000 0.000000 0.000000 -7.125000 0.000000 0.000000 -3.889634 16.401893 -2.639174 0.000000 0.000000 0.000000 2.694779 11.114126 7.710819 -19.675674 -30.249565 -5.367012 -5.916243 -2.432585 56.374017 0.000000 0.000000 0.000000 7.125000 0.000000 0.000000 81.112914 74.136624 -64.477890
3.295371 17.403102 17.795838 172.180172 -5.049513 -150.773075 0.000000 0.000000 0.000000 -3.349045 -31.826103 -44.959864 15.272413 19.453966 76.054766 1.586241 -1.423475 -23.408315 3.712622 -11.766578 -34.912960 0.000000 0.000000 0.000000 7.503482 14.031843 -32.204802 -0.626835 -5.066089 14.097059 -0.711288 -4.921172 -18.472384 -1.167350 6.858433 -19.296655 -8.069360 -4.350712 -19.758081 -1.565536 -3.831464 1.833858 1.582441 -2.359590 13.683440 -0.324726 -3.012473 -1.344386 0.472423 -2.397562 22.446245 0.138171 -0.470030 7.078721 0.000000 0.000000 0.000000 9.875394 -2.170295 -20.904679 17.062589 -26.940133 4.115698 21.522869 -4.440459 12.676096 0.000000 0.000000 0.000000 -7.125000 0.000000 0.000000 -3.978056 16.408954 -2.698824 0.000000 0.000000 0.000000 2.711231 11.064543 7.708566 -19.705123 -30.285475 -5.381887 -6.353472 -2.166642 56.525694 0.000000 0.000000 0.000000 7.125000 0.000000 0.000000 81.568323 74.306106 -65.123816
3.316346 17.405406 17.778283 172.095783 -4.957024 -150.878606 0.000000 0.000000 0.000000 -3.581232 -31.742036 -45.292791 15.559696 19.519931 76.916555 1.604719 -1.148464 -23.624534 3.929267 -12.061005 -35.954679 0.000000 0.000000 0.000000 7.522637 13.995732 -32.024446 -0.622410 -5.048590 14.047107 -0.720483 -4.814041 -18.496289 -1.154638 6.822312 -19.190047 -8.103105 -4.286566 -19.655460 -1.554678 -3.745011 1.858569 1.647236 -2.322185 13.646492 -0.328076 -2.948763 -1.273158 0.444526 -2.326551 22.230725 0.133899 -0.447918 6.994830 0.000000 0.000000 0.000000 9.796856 -2.213525 -21.063515 17.131820 -27.031200 4.147059 21.186817 -4.377734 12.851050 0.000000 0.000000 0.000000 -7.125000 0.000000 0.000000 -4.217152 16.255901 -2.876419 0.000000 0.000000 0.000000 2.613136 10.984121 7.747536 -19.729159 -30.314650 -5.393992 -5.955447 -2.407037 56.777633 0.000000 0.000000 0.000000 7.125000 0.000000 0.000000 82.528181 74.185443 -65.940054
3.338583 17.410997 17.760888 172.044988 -4.828784 -151.097321 0.000000 0.000000 0.000000 -3.879486 -31.606137 -45.458503 15.828763 19.576631 77.720464 1.612603 -0.710193 -23.812525 4.251318 -12.482275 -37.468170 0.000000 0.000000 0.000000 7.583690 14.063697 -31.705764 -0.619343 -5.036470 14.012559 -0.741514 -4.719429 -18.652821 -1.107268 6.683639 -18.782149 -8.180334 -4.216979 -19.418361 -1.522545 -3.654226 1.904991 1.768794 -2.285756 13.561514 -0.410386 -2.922423 -1.293792 0.477954 -2.299154 22.167125 0.159851 -0.442511 6.979243 0.000000 0.000000 0.000000 9.696289 -2.270296 -21.159647 17.150291 -27.055474 4.155469 21.011073 -4.259166 13.028204 0.000000 0.000000 0.000000 -7.125000 0.000000 0.000000 -4.345465 16.085091 -2.980020 0.000000 0.000000 0.000000 2.466178 10.875003 7.840813 -19.712105 -30.293876 -5.385388 -5.630541 -2.617392 56.836896 0.000000 0.000000 0.000000 7.125000 0.000000 0.000000 82.795903 74.075514 -66.079348
3.365523 17.417869 17.754326 171.962866 -4.866064 -151.202075 0.000000 0.000000 0.000000 -3.972835 -31.590980 -45.930153 16.144385 19.639013 78.661051 1.609866 -0.320705 -23.910310 4.529483 -12.833503 -38.748374 0.000000 0.000000 0.000000 7.605364 14.177325 -31.504312 -0.616801 -5.026197 13.983338 -0.759581 -4.807402 -18.897947 -1.040869 6.488408 -18.208184 -8.327252 -4.232386 -19.114169 -1.447232 -3.676602 1.895058 1.947760 -2.305920 13.391237 -0.584501 -2.949220 -1.455571 0.590849 -2.326928 22.370714 0.223318 -0.453630 7.078404 0.000000 0.000000 0.000000 9.588154 -2.324932 -21.224216 17.146017 -27.049882 4.153562 21.054930 -4.126694 13.167668 0.000000 0.000000 0.000000 -7.125000 0.000000 0.000000 -4.320581 15.932994 -2.977017 0.000000 0.000000 0.000000 2.291789 10.747439 7.984179 -19.657815 -30.227848 -5.358025 -5.559496 -2.725363 56.685694 0.000000 0.000000 0.000000 7.125000 0.000000 0.000000 82.276445 74.038903 -65.519186
3.388436 17.419973 17.747640 171.893751 -5.002566 -151.128452 0.000000 0.000000 0.000000 -3.871641 -31.646122 -46.799126 16.532783 19.708579 79.814824 1.623915 -0.352633 -24.005494 4.514007 -12.814722 -38.678733 0.000000 0.000000 0.000000 7.672376 14.160948 -31.436023 -0.599146 -4.954978 13.780199 -0.752069 -4.993112 -18.942647 -1.042973 6.494718 -18.226890 -8.383370 -4.301802 -19.057600 -1.357983 -3.772312 1.844123 2.055189 -2.354451 13.320243 -0.677356 -2.876424 -1.231548 0.620749 -2.239933 22.121298 0.255322 -0.424181 6.958804 0.000000 0.000000 0.000000 9.487636 -2.325683 -21.320000 17.182002 -27.097061 4.169864 21.212318 -4.105584 13.270590 0.000000 0.000000 0.000000 -7.125000 0.000000 0.000000 -4.216232 15.808211 -2.916166 0.000000 0.000000 0.000000 2.110587 10.637155 8.150957 -19.611764 -30.171730 -5.334811 -5.606749 -2.938193 56.515911 0.000000 0.000000 0.000000 7.125000 0.000000 0.000000 81.671762 74.040631 -64.920439
3.407987 17.418397 17.744887 171.827174 -5.243426 -150.726850 0.000000 0.000000 0.000000 -3.446908 -31.859418 -48.324377 17.011327 19.781951 81.230474 1.644370 -0.897403 -23.995432 4.128047 -12.319449 -36.885516 0.000000 0.000000 0.000000 7.596333 14.184727 -31.752809 -0.577305 -4.865045 13.524026 -0.721781 -5.336467 -18.863259 -1.069881 6.575062 -18.462558 -8.322444 -4.366587 -19.304459 -1.286941 -3.865547 1.703359 2.063463 -2.392958 13.310088 -0.694972 -2.942623 -1.368556 0.579724 -2.282480 22.434206 0.242918 -0.434001 7.085412 0.000000 0.000000 0.000000 9.441613 -2.342104 -21.508660 17.209423 -27.133074 4.182423 21.160673 -3.978848 13.308296 0.000000 0.000000 0.000000 -7.125000 0.000000 0.000000 -4.253289 15.773448 -2.945208 0.000000 0.000000 0.000000 2.052520 10.551866 8.033337 -19.609739 -30.169280 -5.333801 -4.691569 -3.668432 56.594809 0.000000 0.000000 0.000000 7.125000 0.000000 0.000000 82.132221 73.725671 -65.012796
3.419938 17.419768 17.724232 171.888326 -5.164452 -150.723745 0.000000 0.000000 0.000000 -3.489595 -31.740075 -49.061830 17.367761 19.832539 82.283075 1.649038 -1.404908 -23.884766 3.845374 -11.951051 -35.560082 0.000000 0.000000 0.000000 7.736313 14.208037 -31.600283 -0.554037 -4.767461 13.246552 -0.710592 -5.295570 -18.719750 -1.039424 6.481429 -18.188767 -8.121333 -4.256979 -19.490249 -1.306100 -3.741866 1.727260 1.957793 -2.321794 13.416806 -0.641152 -3.021776 -1.508902 0.552127 -2.357683 22.714607 0.220328 -0.454486 7.201301 0.000000 0.000000 0.000000 9.484029 -2.373482 -21.785733 17.241321 -27.174860 4.196993 21.104768 -3.800723 13.161530 0.000000 0.000000 0.000000 -7.125000 0.000000 0.000000 -4.286044 15.934630 -2.953016 0.000000 0.000000 0.000000 2.097581 10.429725 7.830434 -19.605103 -30.163645 -5.331482 -3.789991 -4.210535 56.759045 0.000000 0.000000 0.000000 7.125000 0.000000 0.000000 82.878437 73.423872 -65.406503
3.429050 17.423714 17.695022 172.000175 -4.894208 -151.009648 0.000000 0.000000 0.000000 -3.886912 -31.395704 -49.221938 17.622160 19.863147 83.032177 1.638660 -1.773763 -23.709575 3.710526 -11.763769 -34.902971 0.000000 0.000000 0.000000 7.999521 14.212403 -31.124778 -0.536020 -4.690944 13.029263 -0.721115 -4.974733 -18.609442 -0.944788 6.187790 -17.331135 -7.885900 -4.061260 -19.571363 -1.380174 -3.506029 1.875869 1.807549 -2.197112 13.589860 -0.548338 -3.071936 -1.590361 0.556260 -2.423645 22.831281 0.201505 -0.472887 7.253011 0.000000 0.000000 0.000000 9.587207 -2.437659 -22.088531 17.272059 -27.215045 4.210986 21.082328 -3.607521 12.855000 0.000000 0.000000 0.000000 -7.125000 0.000000 0.000000 -4.289642 16.261791 -2.925090 0.000000 0.000000 0.000000 2.191434 10.234386 7.650171 -19.586566 -30.141042 -5.322169 -3.196922 -4.414483 56.963029 0.000000 0.000000 0.000000 7.125000 0.000000 0.000000 83.688657 73.234074 -65.996804
